<svg width="53" height="54" viewBox="0 0 53 54" fill="none" xmlns="http://www.w3.org/2000/svg">
<circle cx="26.5" cy="26.5" r="24.5" fill="white" stroke="#0ED746" stroke-width="4"/>
<g clip-path="url(#clip0_1_612)">
<path d="M27 50.2635C38.8603 50.2635 48.475 40.0719 48.475 27.5C48.475 14.9281 38.8603 4.73651 27 4.73651C15.1397 4.73651 5.52499 14.9281 5.52499 27.5C5.52499 40.0719 15.1397 50.2635 27 50.2635Z" fill="white"/>
<path d="M31.9667 43.3087C30.9444 41.8924 23.4528 41.8924 22.4333 43.3087C23.4556 41.8924 24.525 34.7315 23.7944 33.7187C24.525 34.7286 29.875 34.7286 30.6056 33.7187C29.875 34.7315 30.9444 41.8954 31.9667 43.3087Z" fill="#EFAA75"/>
<path d="M38.3028 46.6683C38.325 47.5635 33.45 50.3607 26.9889 50.3607C20.5278 50.3607 15.8944 47.6165 15.9028 46.6683C15.9139 45.149 18.1639 42.6816 18.1639 42.6816C18.1639 42.6816 21.0056 41.2947 22.8278 40.9149C24.1528 40.6411 25.5278 42.5873 27.0361 42.5873C28.6306 42.5873 30.2139 40.6587 31.6 40.962C33.3306 41.3418 36.0417 42.6816 36.0417 42.6816C36.0417 42.6816 38.2639 45.149 38.3028 46.6683Z" fill="#37291F"/>
<path d="M22.4444 41.0356L27.1361 52.4306L31.9444 41.0356L27.2 41.9337L22.4444 41.0356Z" fill="#D8D8D8"/>
<path d="M23.4722 39.4721L27.2 41.9337L27.2056 44.4188L22.4444 41.0356L23.4722 39.4721Z" fill="#E3E3E3"/>
<path d="M30.9028 39.4721L27.1861 41.9337L27.1833 44.4188L31.9444 41.0356L30.9028 39.4721Z" fill="#E3E3E3"/>
<path d="M27.1361 52.4306L28.5528 49.0739L28.0778 44.2539L28.5306 43.6385L27.1861 41.9337L25.5722 43.7268L26.1333 44.3245L25.7694 49.1122L27.1361 52.4306Z" fill="#25262A"/>
<path d="M20.8361 41.598L21.6611 47.1483L23.4694 47.9227L22.4444 49.2712L27.2 55.5399" stroke="#0ED746" stroke-width="0.54" stroke-miterlimit="10"/>
<path d="M33.5305 41.598L32.7055 47.1483L30.8972 47.9227L31.9222 49.2712L27.1667 55.5399" stroke="#0ED746" stroke-width="0.54" stroke-miterlimit="10"/>
<path d="M36.2778 24.9266C36.2778 30.786 32.1861 36.616 27.1889 36.616C22.1917 36.616 18.1 30.786 18.1 24.9266V16.1168C18.1 10.2573 22.1917 5.46378 27.1889 5.46378C32.1861 5.46378 36.2778 10.2573 36.2778 16.1168V24.9266Z" fill="#FFBA81"/>
<path d="M16.9855 25.8774C17.8136 25.782 18.346 24.3495 18.1745 22.6779C18.003 21.0063 17.1926 19.7286 16.3645 19.824C15.5364 19.9195 15.004 21.352 15.1755 23.0236C15.347 24.6952 16.1573 25.9729 16.9855 25.8774Z" fill="#EFAA75"/>
<path d="M17.8694 21.8113C17.8694 21.8113 16.6639 19.6707 15.525 21.9497M17.4778 21.4315C17.4778 21.4315 16.3055 22.3649 16.1417 24.264" stroke="#C98A5B" stroke-width="0.54" stroke-miterlimit="10" stroke-linecap="round" stroke-linejoin="round"/>
<path d="M39.1687 22.9479C39.3402 21.2763 38.8079 19.8438 37.9797 19.7484C37.1516 19.6529 36.3412 20.9306 36.1698 22.6023C35.9983 24.2739 36.5306 25.7064 37.3587 25.8018C38.1869 25.8973 38.9973 24.6195 39.1687 22.9479Z" fill="#EFAA75"/>
<path d="M36.4778 21.7348C36.4778 21.7348 37.6833 19.5942 38.8222 21.8732M36.8667 21.355C36.8667 21.355 38.0389 22.2883 38.2028 24.1875" stroke="#C98A5B" stroke-width="0.54" stroke-miterlimit="10" stroke-linecap="round" stroke-linejoin="round"/>
<path d="M24.8556 16.1197C24.8556 16.1197 24.9528 15.3424 24.4167 15.2393C23.8778 15.1363 20.2639 16.2758 20.0667 16.5349C19.8722 16.794 20.0667 17.9865 20.0667 17.9865C20.0667 17.9865 23.2417 15.9107 24.8556 16.1197ZM28.8139 15.4955C28.8139 15.4955 31.3806 14.9949 33.1639 16.4789C33.8472 17.0502 33.6028 17.5654 33.6028 17.5654C33.6028 17.5654 30.2667 16.3376 28.5695 16.7881C28.1778 16.8941 28.8139 15.4955 28.8139 15.4955Z" fill="#65463B"/>
<path d="M27.8528 18.6578L27.1028 19.9004L27.2 25.1327L29.35 25.0797L29.1056 26.7904L27.4444 27.6178" stroke="#C98A5B" stroke-width="1.26" stroke-miterlimit="10"/>
<path d="M36.1056 27.023C36.1444 26.7963 36.25 26.0543 36.25 25.7009C36.25 25.7009 30.7028 27.7738 27.0694 27.7738C23.3556 27.7738 18.1194 25.7009 18.1194 25.7009C18.1194 25.7009 18.2083 26.8051 18.2694 27.023C19.0944 32.0992 22.7889 36.613 27.1861 36.613C31.5833 36.613 35.2806 32.0992 36.1056 27.023Z" fill="#EAA471"/>
<path d="M19.9667 26.9435L20.2611 27.8769" stroke="#D69163" stroke-width="0.9" stroke-miterlimit="10" stroke-linecap="round" stroke-linejoin="round"/>
<path d="M19.5778 28.4628L19.8694 29.3285" stroke="#D69163" stroke-width="0.72" stroke-miterlimit="10" stroke-linecap="round" stroke-linejoin="round"/>
<path d="M21.7278 29.1548L22.1195 29.9851" stroke="#D69163" stroke-width="0.54" stroke-miterlimit="10" stroke-linecap="round" stroke-linejoin="round"/>
<path d="M22.2167 30.7948L22.3139 31.3661" stroke="#D69163" stroke-width="0.72" stroke-miterlimit="10" stroke-linecap="round" stroke-linejoin="round"/>
<path d="M20.425 30.3296L20.6528 31.2601" stroke="#D69163" stroke-width="0.54" stroke-miterlimit="10" stroke-linecap="round" stroke-linejoin="round"/>
<path d="M23.8778 30.365L23.8444 31.1923" stroke="#D69163" stroke-width="0.54" stroke-miterlimit="10" stroke-linecap="round" stroke-linejoin="round"/>
<path d="M21.5 32.1581L21.7278 33.0915" stroke="#D69163" stroke-width="0.54" stroke-miterlimit="10" stroke-linecap="round" stroke-linejoin="round"/>
<path d="M23.0305 34.3017L23.4222 34.973" stroke="#D69163" stroke-width="0.9" stroke-miterlimit="10" stroke-linecap="round" stroke-linejoin="round"/>
<path d="M23.3556 32.747L23.6167 33.6451" stroke="#D69163" stroke-width="0.54" stroke-miterlimit="10" stroke-linecap="round" stroke-linejoin="round"/>
<path d="M24.9861 33.0562L25.05 33.966" stroke="#D69163" stroke-width="0.72" stroke-miterlimit="10" stroke-linecap="round" stroke-linejoin="round"/>
<path d="M25.8333 34.8876L26.0278 35.715" stroke="#D69163" stroke-width="0.9" stroke-miterlimit="10" stroke-linecap="round" stroke-linejoin="round"/>
<path d="M26.875 32.3318L26.8083 33.2299" stroke="#D69163" stroke-width="0.54" stroke-miterlimit="10" stroke-linecap="round" stroke-linejoin="round"/>
<path d="M26.3528 30.9862L26.3833 31.4691" stroke="#D69163" stroke-width="0.9" stroke-miterlimit="10" stroke-linecap="round" stroke-linejoin="round"/>
<path d="M21.6944 27.5324L21.7278 28.1183" stroke="#D69163" stroke-width="0.72" stroke-miterlimit="10" stroke-linecap="round" stroke-linejoin="round"/>
<path d="M23.3556 27.7385L23.2583 28.3274" stroke="#D69163" stroke-width="0.54" stroke-miterlimit="10" stroke-linecap="round" stroke-linejoin="round"/>
<path d="M25.1472 28.4982L25.2778 29.0871" stroke="#D69163" stroke-width="0.54" stroke-miterlimit="10" stroke-linecap="round" stroke-linejoin="round"/>
<path d="M26.8528 28.2096L26.9389 29.0871" stroke="#D69163" stroke-width="0.72" stroke-miterlimit="10" stroke-linecap="round" stroke-linejoin="round"/>
<path d="M28.5361 28.7161L28.4389 29.3609" stroke="#D69163" stroke-width="0.54" stroke-miterlimit="10" stroke-linecap="round" stroke-linejoin="round"/>
<path d="M29.775 27.8887L29.7417 28.3598" stroke="#D69163" stroke-width="0.72" stroke-miterlimit="10" stroke-linecap="round" stroke-linejoin="round"/>
<path d="M32.275 28.2832L32.4111 27.338" stroke="#D69163" stroke-width="0.54" stroke-miterlimit="10" stroke-linecap="round" stroke-linejoin="round"/>
<path d="M34.6278 26.599L34.4972 27.4293" stroke="#D69163" stroke-width="0.9" stroke-miterlimit="10" stroke-linecap="round" stroke-linejoin="round"/>
<path d="M30.0667 30.5357L29.725 31.2453" stroke="#D69163" stroke-width="0.54" stroke-miterlimit="10" stroke-linecap="round" stroke-linejoin="round"/>
<path d="M31.7278 29.8968L31.4361 30.6741" stroke="#D69163" stroke-width="0.54" stroke-miterlimit="10" stroke-linecap="round" stroke-linejoin="round"/>
<path d="M33.5861 29.2254L33.0972 29.9498" stroke="#D69163" stroke-width="0.72" stroke-miterlimit="10" stroke-linecap="round" stroke-linejoin="round"/>
<path d="M35.15 28.2921L34.7583 29.0694" stroke="#D69163" stroke-width="0.36" stroke-miterlimit="10" stroke-linecap="round" stroke-linejoin="round"/>
<path d="M31.7778 31.6576L31.3861 32.3848" stroke="#D69163" stroke-width="0.72" stroke-miterlimit="10" stroke-linecap="round" stroke-linejoin="round"/>
<path d="M28.7 32.694L28.4389 33.5067" stroke="#D69163" stroke-width="0.54" stroke-miterlimit="10" stroke-linecap="round" stroke-linejoin="round"/>
<path d="M31.8917 33.6451L31.3056 34.334" stroke="#D69163" stroke-width="0.72" stroke-miterlimit="10" stroke-linecap="round" stroke-linejoin="round"/>
<path d="M29.9361 33.5744L29.775 34.1957" stroke="#D69163" stroke-width="0.54" stroke-miterlimit="10" stroke-linecap="round" stroke-linejoin="round"/>
<path d="M28.5028 34.6108L28.3083 35.4412" stroke="#D69163" stroke-width="0.72" stroke-miterlimit="10" stroke-linecap="round" stroke-linejoin="round"/>
<path d="M33.3306 31.5368L33.1306 32.1934" stroke="#D69163" stroke-width="0.9" stroke-miterlimit="10" stroke-linecap="round" stroke-linejoin="round"/>
<path d="M34.3028 30.5357L34.0417 31.157" stroke="#D69163" stroke-width="0.54" stroke-miterlimit="10" stroke-linecap="round" stroke-linejoin="round"/>
<path d="M24.025 28.8603L23.4861 29.4816" stroke="#442007" stroke-width="0.9" stroke-miterlimit="10" stroke-linecap="round"/>
<path d="M31.0444 28.8603L31.5833 29.4816" stroke="#442007" stroke-width="0.9" stroke-miterlimit="10" stroke-linecap="round"/>
<path d="M31.2694 29.1636C30.6139 29.9027 29.1722 30.4179 27.5 30.4179C25.8333 30.4179 24.3944 29.9085 23.7361 29.1724" stroke="#442007" stroke-width="0.9" stroke-miterlimit="10"/>
<path opacity="0.5" d="M29.3667 21.2107C29.4389 21.4551 29.8444 22.2 31.0611 22.3148C32.15 22.4179 32.9083 21.8849 32.9083 21.0958C32.9083 20.3067 32.1083 19.5529 31.0972 19.5529C30.5917 19.5529 29.8333 19.5294 29.475 19.7443C29.2583 19.8768 29.2528 20.8279 29.3667 21.2107Z" fill="#F7EDE7"/>
<path d="M32.6611 20.2891C32.6611 20.2891 31.4667 18.9022 29.475 19.7473C29.475 19.7473 30.9528 19.6266 32.6611 20.2891Z" fill="#65463B"/>
<path d="M31.1222 22.2206C31.7512 22.2206 32.2611 21.6801 32.2611 21.0134C32.2611 20.3466 31.7512 19.8062 31.1222 19.8062C30.4932 19.8062 29.9833 20.3466 29.9833 21.0134C29.9833 21.6801 30.4932 22.2206 31.1222 22.2206Z" fill="#65463B"/>
<path opacity="0.5" d="M24.9861 21.2107C24.9139 21.4551 24.5083 22.2 23.2917 22.3148C22.2028 22.4208 21.4444 21.8879 21.4444 21.0958C21.4444 20.3038 22.2444 19.5529 23.2556 19.5529C23.7611 19.5529 24.5194 19.5294 24.8778 19.7443C25.0944 19.8768 25.0972 20.8279 24.9861 21.2107Z" fill="#F7EDE7"/>
<path d="M21.6917 20.2891C21.6917 20.2891 22.8861 18.9022 24.8778 19.7473C24.8778 19.7473 23.3972 19.6266 21.6917 20.2891Z" fill="#65463B"/>
<path d="M23.2305 22.2206C23.8595 22.2206 24.3694 21.6801 24.3694 21.0134C24.3694 20.3466 23.8595 19.8062 23.2305 19.8062C22.6016 19.8062 22.0917 20.3466 22.0917 21.0134C22.0917 21.6801 22.6016 22.2206 23.2305 22.2206Z" fill="#65463B"/>
<path opacity="0.39" d="M28.6861 22.1735C28.7361 22.518 29.05 22.8006 29.3778 22.8006H34.0417C34.3722 22.8006 34.675 22.518 34.7167 22.1705L34.9778 19.974C35.0194 19.6265 34.7861 19.3026 34.4583 19.2526L28.7056 18.3899C28.3778 18.3398 28.1528 18.5842 28.2056 18.9287L28.6861 22.1735Z" fill="#D8A177"/>
<path opacity="0.3" d="M28.3111 18.3369L28.2639 19.1672L28.6056 22.0145L29.0444 22.6888L30.4139 22.7388L32.6611 18.9582L28.3111 18.3369Z" fill="#FFE8D9"/>
<path d="M28.6861 22.1735C28.7361 22.518 29.05 22.8006 29.3778 22.8006H34.0417C34.3722 22.8006 34.675 22.518 34.7167 22.1705L34.9778 19.974C35.0194 19.6265 34.7861 19.3026 34.4583 19.2526L28.7056 18.3899C28.3778 18.3398 28.1528 18.5842 28.2056 18.9287L28.6861 22.1735Z" stroke="#66391B" stroke-width="0.9" stroke-miterlimit="10"/>
<path d="M36.2861 20.6954L36.2417 20.5511L34.8889 19.3468L34.8111 19.5441L35.1833 20.1242L36.0806 20.8308L36.2611 21.3078C36.2889 21.3785 36.3889 21.3608 36.3944 21.2843V21.2813C36.4389 21.3049 36.3 20.7425 36.2861 20.6954Z" fill="#66391B"/>
<path opacity="0.39" d="M25.6639 22.1735C25.6139 22.518 25.3 22.8006 24.9722 22.8006H20.3083C19.9778 22.8006 19.675 22.518 19.6333 22.1705L19.3722 19.974C19.3306 19.6265 19.5639 19.3026 19.8917 19.2526L25.6444 18.3899C25.9722 18.3398 26.1972 18.5842 26.1444 18.9287L25.6639 22.1735Z" fill="#D8A177"/>
<path opacity="0.3" d="M19.4639 19.3468L19.4667 20.875L19.9055 22.7388H21.5667L23.8167 18.699L19.4639 19.3468Z" fill="#FFE8D9"/>
<path d="M25.6639 22.1735C25.6139 22.518 25.3 22.8006 24.9722 22.8006H20.3083C19.9778 22.8006 19.675 22.518 19.6333 22.1705L19.3722 19.974C19.3306 19.6265 19.5639 19.3026 19.8917 19.2526L25.6444 18.3899C25.9722 18.3398 26.1972 18.5842 26.1444 18.9287L25.6639 22.1735Z" stroke="#66391B" stroke-width="0.9" stroke-miterlimit="10"/>
<path d="M18.0639 20.6954L18.1111 20.5511L19.4639 19.3468L19.5417 19.5441L19.1694 20.1242L18.2722 20.8308L18.0917 21.3078C18.0639 21.3785 17.9639 21.3608 17.9583 21.2843V21.2813C17.9139 21.3049 18.05 20.7425 18.0639 20.6954Z" fill="#66391B"/>
<path d="M26.1083 19.484L28.2278 19.4676" stroke="#66391B" stroke-width="1.44" stroke-miterlimit="10"/>
<path d="M18.1639 22.2942C18.1639 22.2942 20.0972 13.3372 20.2917 11.6795C20.2917 11.6795 29.7389 14.7182 34.6917 11.6795C34.6917 11.6795 36.5 18.0159 36.2333 22.0852C36.2333 22.0174 39.7083 14.512 37.7528 8.43176C37.0361 6.70632 34.5611 6.63565 34.5611 6.63565C34.5611 6.63565 37.2333 5.32243 36.0611 3.73537C34.8889 2.14537 29.8722 0.143151 23.7472 5.32537C22.575 6.36182 25.8806 2.32793 24.3333 2.90799C22.1194 3.73832 18.8917 6.24699 17.4917 12.1653C16.0361 18.3104 18.1639 22.2942 18.1639 22.2942Z" fill="#442007"/>
<path d="M24.5278 7.05377C24.5278 7.05377 29.6111 2.35738 34.0917 4.27127M18.0972 16.1168C18.0972 16.1168 18.0944 12.9574 19.5611 10.2132M21.4972 9.76561C21.4972 9.76561 28.0417 12.6453 34.0917 9.2415C37.0555 7.53961 36.9305 17.6184 36.9305 17.6184" stroke="#592E11" stroke-width="0.72" stroke-miterlimit="10" stroke-linecap="round" stroke-linejoin="round"/>
</g>
<defs>
<clipPath id="clip0_1_612">
<rect width="50" height="53" fill="white" transform="translate(2 1)"/>
</clipPath>
</defs>
</svg>
